<svg width="228" height="45" viewBox="0 0 228 45" fill="none" xmlns="http://www.w3.org/2000/svg">
<path d="M60.2452 20.7672C58.759 20.7672 57.5011 20.4499 56.4719 19.8155C55.4422 19.181 54.6619 18.3045 54.1301 17.1855C53.5984 16.0668 53.3325 14.7979 53.3325 13.3787C53.3325 11.946 53.5984 10.6703 54.1301 9.55135C54.6619 8.43269 55.4458 7.55583 56.4821 6.92136C57.5181 6.28683 58.7794 5.96965 60.2657 5.96965C61.7654 5.96965 63.0266 6.28367 64.0492 6.91107C65.0718 7.53887 65.8489 8.41222 66.3807 9.53088C66.9125 10.6498 67.1783 11.9255 67.1783 13.3582C67.1783 14.7774 66.9125 16.0464 66.3807 17.165C65.8489 18.284 65.0683 19.164 64.039 19.8053C63.0094 20.4467 61.7449 20.7672 60.2452 20.7672ZM60.2657 18.7819C61.3563 18.7819 62.2494 18.5296 62.9448 18.0246C63.6402 17.52 64.1515 16.858 64.4787 16.0394C64.806 15.2207 64.9696 14.3339 64.9696 13.3787C64.9696 12.6556 64.8775 11.9664 64.6935 11.3115C64.5094 10.6566 64.2262 10.0768 63.8447 9.57182C63.4628 9.06721 62.972 8.67127 62.3722 8.38474C61.7721 8.0982 61.07 7.95498 60.2657 7.95498C59.1884 7.95498 58.2987 8.2076 57.5967 8.71226C56.8943 9.21715 56.3728 9.87882 56.0321 10.6975C55.6911 11.5162 55.5208 12.41 55.5208 13.3787C55.5208 14.3339 55.6876 15.2207 56.0219 16.0394C56.3558 16.8581 56.8738 17.5201 57.5762 18.0247C58.2783 18.5296 59.1747 18.782 60.2656 18.782L60.2657 18.7819ZM57.8933 4.6393C57.5251 4.6393 57.2113 4.52351 56.9525 4.29131C56.6934 4.05945 56.5639 3.74577 56.5639 3.34988C56.5639 2.954 56.6934 2.63705 56.9525 2.39817C57.2113 2.15959 57.5252 2.03996 57.8933 2.03996C58.2613 2.03996 58.5749 2.15959 58.834 2.39817C59.0929 2.63705 59.2226 2.95429 59.2226 3.34988C59.2226 3.74548 59.0964 4.0595 58.8442 4.29131C58.5917 4.52351 58.2748 4.6393 57.8933 4.6393ZM62.6381 4.6393C62.2699 4.6393 61.9596 4.52351 61.7075 4.29131C61.455 4.05945 61.3292 3.74577 61.3292 3.34988C61.3292 2.954 61.455 2.63705 61.7075 2.39817C61.9597 2.15959 62.2699 2.03996 62.6381 2.03996C63.0062 2.03996 63.3197 2.15959 63.5788 2.39817C63.8377 2.63705 63.9674 2.95429 63.9674 3.34988C63.9674 3.74548 63.8377 4.0595 63.5788 4.29131C63.3197 4.52351 63.0061 4.6393 62.6381 4.6393Z" fill="#202124"/>
<path d="M73.2935 20.7263C72.789 20.7263 72.2843 20.6783 71.7801 20.583C71.2755 20.4877 70.8051 20.317 70.3689 20.0714C69.9324 19.8258 69.5643 19.4951 69.2645 19.0787C68.9645 18.6627 68.7737 18.1475 68.6919 17.5335H70.8393C70.9483 17.8609 71.1426 18.127 71.4222 18.3317C71.7015 18.5364 72.0154 18.6866 72.363 18.782C72.7107 18.8776 73.0548 18.9252 73.3958 18.9252C73.6003 18.9252 73.8285 18.9118 74.0809 18.8842C74.3331 18.8571 74.575 18.7957 74.807 18.7001C75.0387 18.6048 75.2294 18.4647 75.3796 18.2805C75.5295 18.0963 75.6046 17.8475 75.6046 17.5335C75.6046 17.2879 75.5397 17.0832 75.4103 16.9195C75.2806 16.7557 75.1035 16.6227 74.8785 16.5204C74.6536 16.4181 74.3842 16.3397 74.0707 16.285C73.4571 16.1487 72.7992 16.0158 72.0971 15.8859C71.3947 15.7564 70.778 15.5277 70.2462 15.2003C70.0551 15.0775 69.8848 14.9377 69.7349 14.7807C69.5847 14.624 69.4553 14.443 69.3463 14.2384C69.2371 14.0337 69.1553 13.8156 69.1009 13.5835C69.0463 13.3516 69.0191 13.0992 69.0191 12.8262C69.0191 12.2668 69.1317 11.7894 69.3566 11.3935C69.5815 10.9979 69.8915 10.674 70.2871 10.4213C70.6824 10.169 71.1323 9.9813 71.6369 9.8585C72.1412 9.73569 72.673 9.67429 73.2322 9.67429C73.9547 9.67429 74.6092 9.79042 75.1955 10.0223C75.7816 10.2544 76.2658 10.5954 76.6476 11.0456C77.0292 11.4958 77.2541 12.0622 77.3225 12.7443H75.3387C75.2569 12.3759 75.0217 12.0792 74.6331 11.854C74.2446 11.6289 73.7569 11.5163 73.1708 11.5163C72.9664 11.5163 72.7446 11.53 72.5062 11.5572C72.2675 11.5847 72.039 11.6461 71.8211 11.7414C71.6028 11.8371 71.4255 11.97 71.2893 12.1405C71.1529 12.3113 71.0848 12.5329 71.0848 12.8057C71.0848 13.065 71.1494 13.2834 71.2791 13.4606C71.4085 13.6381 71.5993 13.7813 71.8517 13.8904C72.1039 13.9997 72.3937 14.0883 72.721 14.1564C73.1844 14.2658 73.6854 14.3681 74.2241 14.4634C74.7627 14.5591 75.2023 14.6614 75.5433 14.7705C75.9932 14.8933 76.3783 15.0707 76.6988 15.3026C77.019 15.5348 77.2644 15.828 77.4351 16.1827C77.6054 16.5377 77.6907 16.9675 77.6907 17.4721C77.6907 18.127 77.561 18.6627 77.3021 19.0788C77.043 19.4951 76.6988 19.8258 76.2693 20.0714C75.8399 20.317 75.3624 20.4878 74.8377 20.5831C74.3127 20.6784 73.7979 20.7263 73.2936 20.7263L73.2935 20.7263Z" fill="#202124"/>
<path d="M84.0306 20.6035C83.1851 20.6035 82.4967 20.4842 81.965 20.2453C81.4332 20.0067 81.0411 19.6281 80.789 19.1093C80.5365 18.5909 80.4106 17.9155 80.4106 17.0831V11.7003H78.7131V9.81736H80.4106V6.7064H82.5172V9.81736H85.2372V11.7003H82.5172V16.817C82.5172 17.4586 82.6329 17.9395 82.8648 18.26C83.0965 18.5807 83.5807 18.7409 84.3169 18.7409H85.1554V20.6034H84.0306V20.6035Z" fill="#202124"/>
<path d="M91.7816 20.7263C90.6497 20.7263 89.7022 20.4944 88.9387 20.0304C88.175 19.5667 87.5991 18.922 87.2106 18.0963C86.822 17.2709 86.6277 16.3192 86.6277 15.2412C86.6277 14.1498 86.8287 13.1878 87.2311 12.3554C87.6331 11.5232 88.2195 10.8683 88.9899 10.3905C89.76 9.91307 90.6906 9.67419 91.7816 9.67419C92.613 9.67419 93.3359 9.8277 93.9495 10.1347C94.563 10.4417 95.0708 10.8545 95.4731 11.3729C95.8751 11.8917 96.1717 12.4679 96.3628 13.1024C96.5535 13.7369 96.6354 14.3953 96.6082 15.0774C96.6082 15.2277 96.6012 15.371 96.5877 15.5072C96.574 15.6438 96.5603 15.787 96.5468 15.937H88.7547C88.7956 16.4829 88.9353 16.9808 89.1739 17.4311C89.4123 17.8813 89.7498 18.2395 90.1863 18.5056C90.6225 18.7717 91.161 18.9047 91.802 18.9047C92.1564 18.9047 92.5006 18.8606 92.8348 18.7717C93.1687 18.6831 93.4688 18.5398 93.7347 18.3419C94.0005 18.1442 94.1878 17.8884 94.2971 17.5744H96.4241C96.2467 18.2978 95.9298 18.8945 95.4731 19.3652C95.0161 19.836 94.4639 20.1807 93.8165 20.3988C93.1687 20.6169 92.4904 20.7263 91.7816 20.7263ZM88.7956 14.2587H94.5221C94.5084 13.7266 94.3857 13.2526 94.154 12.8363C93.9219 12.4203 93.6018 12.0928 93.1927 11.8539C92.7838 11.6153 92.2929 11.4957 91.7202 11.4957C91.0929 11.4957 90.5714 11.6256 90.1557 11.8846C89.7396 12.1439 89.4194 12.4816 89.1944 12.8977C88.9695 13.314 88.8365 13.7675 88.7956 14.2587Z" fill="#202124"/>
<path d="M98.7759 20.6035V9.81742H100.76L100.862 11.3729C101.135 10.9501 101.448 10.6156 101.803 10.37C102.157 10.1244 102.546 9.94724 102.968 9.83788C103.391 9.72882 103.834 9.67415 104.298 9.67415H104.952V11.7004H104.298C103.521 11.7004 102.877 11.8574 102.365 12.1711C101.854 12.4851 101.479 12.9217 101.24 13.481C101.002 14.0406 100.882 14.6819 100.882 15.4049V20.6035H98.7759Z" fill="#202124"/>
<path d="M106.547 20.6035V9.81742H108.531L108.633 11.3729C108.906 10.9501 109.22 10.6156 109.574 10.37C109.929 10.1244 110.317 9.94724 110.74 9.83788C111.162 9.72882 111.606 9.67415 112.069 9.67415H112.724V11.7004H112.069C111.292 11.7004 110.648 11.8574 110.137 12.1711C109.625 12.4851 109.25 12.9217 109.012 13.481C108.773 14.0406 108.654 14.6819 108.654 15.4049V20.6035H106.547Z" fill="#202124"/>
<path d="M118.818 20.7263C117.686 20.7263 116.739 20.4944 115.975 20.0304C115.212 19.5667 114.636 18.922 114.247 18.0963C113.859 17.2709 113.664 16.3192 113.664 15.2412C113.664 14.1498 113.865 13.1878 114.268 12.3554C114.67 11.5232 115.256 10.8683 116.027 10.3905C116.797 9.91307 117.727 9.67419 118.818 9.67419C119.65 9.67419 120.373 9.8277 120.986 10.1347C121.6 10.4417 122.107 10.8545 122.51 11.3729C122.912 11.8917 123.208 12.4679 123.399 13.1024C123.59 13.7369 123.672 14.3953 123.645 15.0774C123.645 15.2277 123.638 15.371 123.624 15.5072C123.611 15.6438 123.597 15.787 123.583 15.937H115.791C115.832 16.4829 115.972 16.9808 116.211 17.4311C116.449 17.8813 116.786 18.2395 117.223 18.5056C117.659 18.7717 118.198 18.9047 118.839 18.9047C119.193 18.9047 119.537 18.8606 119.871 18.7717C120.205 18.6831 120.505 18.5398 120.771 18.3419C121.037 18.1442 121.224 17.8884 121.334 17.5744H123.461C123.283 18.2978 122.966 18.8945 122.51 19.3652C122.053 19.836 121.501 20.1807 120.853 20.3988C120.205 20.6169 119.527 20.7263 118.818 20.7263ZM115.832 14.2587H121.559C121.545 13.7266 121.422 13.2526 121.191 12.8363C120.959 12.4203 120.638 12.0928 120.229 11.8539C119.82 11.6153 119.329 11.4957 118.757 11.4957C118.129 11.4957 117.608 11.6256 117.192 11.8846C116.776 12.1439 116.456 12.4816 116.231 12.8977C116.006 13.314 115.873 13.7675 115.832 14.2587Z" fill="#202124"/>
<path d="M126.855 8.38473C126.446 8.38473 126.116 8.25877 125.863 8.0061C125.611 7.75377 125.485 7.42981 125.485 7.03392C125.485 6.63803 125.614 6.31436 125.874 6.06174C126.132 5.80942 126.46 5.68311 126.855 5.68311C127.224 5.68311 127.547 5.80942 127.827 6.06174C128.106 6.31441 128.246 6.63832 128.246 7.03392C128.246 7.42952 128.113 7.75377 127.847 8.0061C127.581 8.25877 127.251 8.38473 126.855 8.38473ZM125.812 20.6035V9.81742H127.919V20.6035H125.812Z" fill="#202124"/>
<path d="M135.2 20.7263C134.068 20.7263 133.124 20.4944 132.367 20.0304C131.61 19.5667 131.044 18.922 130.67 18.0963C130.294 17.2709 130.107 16.3192 130.107 15.2412C130.107 14.1769 130.301 13.2252 130.69 12.3861C131.079 11.5469 131.665 10.8852 132.449 10.4008C133.233 9.91658 134.204 9.67419 135.363 9.67419C136.154 9.67419 136.856 9.80723 137.47 10.0733C138.083 10.3394 138.585 10.7282 138.973 11.2399C139.362 11.7515 139.617 12.3896 139.74 13.1536H137.633C137.456 12.5942 137.16 12.1916 136.744 11.946C136.328 11.7004 135.84 11.5776 135.282 11.5776C134.532 11.5776 133.935 11.7551 133.492 12.1098C133.049 12.4647 132.725 12.9217 132.521 13.481C132.316 14.0407 132.214 14.6272 132.214 15.2412C132.214 15.8827 132.319 16.4763 132.531 17.0218C132.742 17.5677 133.069 18.0077 133.512 18.3419C133.955 18.6764 134.538 18.8434 135.261 18.8434C135.806 18.8434 136.311 18.7241 136.774 18.4852C137.238 18.2466 137.538 17.8405 137.674 17.2674H139.842C139.719 18.0589 139.433 18.7103 138.983 19.222C138.533 19.7337 137.978 20.1123 137.316 20.3579C136.655 20.6035 135.949 20.7263 135.2 20.7263V20.7263Z" fill="#202124"/>
<path d="M141.887 20.6035V6.13338H143.994V11.332C144.28 10.9636 144.611 10.6566 144.986 10.411C145.361 10.1654 145.766 9.9812 146.203 9.8584C146.639 9.7356 147.075 9.6742 147.512 9.6742C148.548 9.6742 149.359 9.89616 149.945 10.3394C150.532 10.783 150.948 11.38 151.193 12.1302C151.438 12.8808 151.561 13.7266 151.561 14.6681V20.6035H149.434V15.1593C149.434 14.7228 149.403 14.293 149.342 13.8699C149.281 13.4471 149.168 13.0615 149.005 12.7135C148.841 12.3656 148.592 12.0861 148.258 11.8744C147.924 11.663 147.478 11.5571 146.919 11.5571C146.387 11.5571 145.933 11.6732 145.558 11.9051C145.183 12.1373 144.884 12.4475 144.659 12.8363C144.434 13.2252 144.267 13.6483 144.158 14.1053C144.048 14.5626 143.994 15.016 143.994 15.4663V20.6035H141.887L141.887 20.6035Z" fill="#202124"/>
<path d="M155.222 8.38473C154.813 8.38473 154.482 8.25877 154.23 8.0061C153.977 7.75377 153.852 7.42981 153.852 7.03392C153.852 6.63803 153.981 6.31436 154.24 6.06174C154.499 5.80942 154.826 5.68311 155.222 5.68311C155.59 5.68311 155.914 5.80942 156.193 6.06174C156.472 6.31441 156.612 6.63832 156.612 7.03392C156.612 7.42952 156.48 7.75377 156.214 8.0061C155.948 8.25877 155.617 8.38473 155.222 8.38473ZM154.179 20.6035V9.81742H156.285V20.6035H154.179Z" fill="#202124"/>
<path d="M163.014 20.7263C162.509 20.7263 162.005 20.6783 161.5 20.583C160.996 20.4877 160.525 20.317 160.089 20.0714C159.653 19.8258 159.285 19.4951 158.985 19.0787C158.685 18.6627 158.494 18.1475 158.412 17.5335H160.56C160.669 17.8609 160.863 18.127 161.142 18.3317C161.422 18.5364 161.736 18.6866 162.083 18.782C162.431 18.8776 162.775 18.9252 163.116 18.9252C163.321 18.9252 163.549 18.9118 163.801 18.8842C164.053 18.8571 164.295 18.7957 164.527 18.7001C164.759 18.6048 164.95 18.4647 165.1 18.2805C165.25 18.0963 165.325 17.8475 165.325 17.5335C165.325 17.2879 165.26 17.0832 165.131 16.9195C165.001 16.7557 164.824 16.6227 164.599 16.5204C164.374 16.4181 164.104 16.3397 163.791 16.285C163.177 16.1487 162.519 16.0158 161.817 15.8859C161.115 15.7564 160.498 15.5277 159.966 15.2003C159.775 15.0775 159.605 14.9377 159.455 14.7807C159.305 14.624 159.176 14.443 159.067 14.2384C158.957 14.0337 158.875 13.8156 158.821 13.5835C158.767 13.3516 158.739 13.0992 158.739 12.8262C158.739 12.2668 158.852 11.7894 159.077 11.3935C159.302 10.9979 159.612 10.674 160.007 10.4213C160.403 10.169 160.853 9.9813 161.357 9.8585C161.861 9.73569 162.393 9.67429 162.952 9.67429C163.675 9.67429 164.329 9.79042 164.916 10.0223C165.502 10.2544 165.986 10.5954 166.368 11.0456C166.749 11.4958 166.974 12.0622 167.043 12.7443H165.059C164.977 12.3759 164.742 12.0792 164.353 11.854C163.965 11.6289 163.477 11.5163 162.891 11.5163C162.687 11.5163 162.465 11.53 162.226 11.5572C161.988 11.5847 161.759 11.6461 161.541 11.7414C161.323 11.8371 161.146 11.97 161.01 12.1405C160.873 12.3113 160.805 12.5329 160.805 12.8057C160.805 13.065 160.87 13.2834 160.999 13.4606C161.129 13.6381 161.319 13.7813 161.572 13.8904C161.824 13.9997 162.114 14.0883 162.441 14.1564C162.905 14.2658 163.406 14.3681 163.944 14.4634C164.483 14.5591 164.923 14.6614 165.264 14.7705C165.713 14.8933 166.099 15.0707 166.419 15.3026C166.739 15.5348 166.985 15.828 167.155 16.1827C167.326 16.5377 167.411 16.9675 167.411 17.4721C167.411 18.127 167.281 18.6627 167.022 19.0788C166.763 19.4951 166.419 19.8258 165.99 20.0714C165.56 20.317 165.083 20.4878 164.558 20.5831C164.033 20.6784 163.518 20.7263 163.014 20.7263L163.014 20.7263Z" fill="#202124"/>
<path d="M173.894 20.7263C172.762 20.7263 171.818 20.4944 171.062 20.0304C170.305 19.5667 169.739 18.922 169.364 18.0963C168.989 17.2709 168.802 16.3192 168.802 15.2412C168.802 14.1769 168.996 13.2252 169.385 12.3861C169.773 11.5469 170.359 10.8852 171.144 10.4008C171.927 9.91658 172.899 9.67419 174.058 9.67419C174.848 9.67419 175.551 9.80723 176.164 10.0733C176.778 10.3394 177.279 10.7282 177.668 11.2399C178.056 11.7515 178.312 12.3896 178.435 13.1536H176.328C176.151 12.5942 175.854 12.1916 175.438 11.946C175.022 11.7004 174.535 11.5776 173.976 11.5776C173.226 11.5776 172.629 11.7551 172.187 12.1098C171.743 12.4647 171.42 12.9217 171.215 13.481C171.011 14.0407 170.908 14.6272 170.908 15.2412C170.908 15.8827 171.014 16.4763 171.225 17.0218C171.437 17.5677 171.764 18.0077 172.207 18.3419C172.65 18.6764 173.233 18.8434 173.956 18.8434C174.501 18.8434 175.005 18.7241 175.469 18.4852C175.932 18.2466 176.233 17.8405 176.369 17.2674H178.537C178.414 18.0589 178.128 18.7103 177.678 19.222C177.228 19.7337 176.672 20.1123 176.011 20.3579C175.35 20.6035 174.644 20.7263 173.894 20.7263V20.7263Z" fill="#202124"/>
<path d="M180.377 20.6035V6.13338H182.484V11.332C182.77 10.9636 183.101 10.6566 183.476 10.411C183.851 10.1654 184.256 9.9812 184.693 9.8584C185.129 9.7356 185.565 9.6742 186.001 9.6742C187.037 9.6742 187.849 9.89616 188.435 10.3394C189.021 10.783 189.437 11.38 189.683 12.1302C189.928 12.8808 190.051 13.7266 190.051 14.6681V20.6035H187.924V15.1593C187.924 14.7228 187.893 14.293 187.832 13.8699C187.771 13.4471 187.658 13.0615 187.494 12.7135C187.331 12.3656 187.082 12.0861 186.748 11.8744C186.414 11.663 185.967 11.5571 185.408 11.5571C184.877 11.5571 184.423 11.6732 184.048 11.9051C183.673 12.1373 183.373 12.4475 183.148 12.8363C182.923 13.2252 182.756 13.6483 182.647 14.1053C182.538 14.5626 182.484 15.016 182.484 15.4663V20.6035H180.377L180.377 20.6035Z" fill="#202124"/>
<path d="M197.107 20.7263C195.975 20.7263 195.027 20.4944 194.264 20.0304C193.5 19.5667 192.924 18.922 192.536 18.0963C192.147 17.2709 191.953 16.3192 191.953 15.2412C191.953 14.1498 192.154 13.1878 192.556 12.3554C192.958 11.5232 193.545 10.8683 194.315 10.3905C195.085 9.91307 196.016 9.67419 197.107 9.67419C197.938 9.67419 198.661 9.8277 199.275 10.1347C199.888 10.4417 200.396 10.8545 200.798 11.3729C201.2 11.8917 201.497 12.4679 201.688 13.1024C201.879 13.7369 201.961 14.3953 201.933 15.0774C201.933 15.2277 201.926 15.371 201.913 15.5072C201.899 15.6438 201.885 15.787 201.872 15.937H194.08C194.121 16.4829 194.26 16.9808 194.499 17.4311C194.738 17.8813 195.075 18.2395 195.511 18.5056C195.948 18.7717 196.486 18.9047 197.127 18.9047C197.482 18.9047 197.826 18.8606 198.16 18.7717C198.494 18.6831 198.794 18.5398 199.06 18.3419C199.326 18.1442 199.513 17.8884 199.622 17.5744H201.749C201.572 18.2978 201.255 18.8945 200.798 19.3652C200.341 19.836 199.789 20.1807 199.142 20.3988C198.494 20.6169 197.816 20.7263 197.107 20.7263ZM194.121 14.2587H199.847C199.834 13.7266 199.711 13.2526 199.479 12.8363C199.247 12.4203 198.927 12.0928 198.518 11.8539C198.109 11.6153 197.618 11.4957 197.045 11.4957C196.418 11.4957 195.897 11.6256 195.481 11.8846C195.065 12.1439 194.745 12.4816 194.52 12.8977C194.295 13.314 194.162 13.7675 194.121 14.2587Z" fill="#202124"/>
<path d="M52.5759 41.0703L58.0365 26.6003H60.8384L66.2786 41.0703H63.9471L62.8836 38.164H55.9709L54.9074 41.0703H52.5759ZM56.6867 36.2197H62.1678L59.4273 28.6675L56.6867 36.2197Z" fill="#202124"/>
<path d="M67.71 45V30.2844H69.7142L69.8165 31.8194C70.1981 31.26 70.696 30.8405 71.3095 30.5607C71.9231 30.2812 72.5909 30.1411 73.3137 30.1411C74.3906 30.1411 75.2771 30.3835 75.9725 30.8677C76.6678 31.3521 77.1858 32.0139 77.5268 32.8529C77.8675 33.6921 78.0381 34.6304 78.0381 35.6671C78.0381 36.7314 77.8643 37.68 77.5166 38.512C77.1689 39.3445 76.6371 39.9994 75.9213 40.4769C75.2055 40.9546 74.3021 41.1932 73.2115 41.1932C72.6932 41.1932 72.2196 41.1385 71.7901 41.0295C71.3606 40.9204 70.9855 40.7602 70.6653 40.5485C70.3447 40.3371 70.0619 40.088 69.8165 39.8015V45L67.71 45ZM72.9457 39.3102C73.6819 39.3102 74.268 39.1432 74.7045 38.8088C75.1407 38.4746 75.4542 38.0345 75.6452 37.4886C75.836 36.9431 75.9316 36.3495 75.9316 35.708C75.9316 35.0396 75.8325 34.4288 75.635 33.8762C75.4372 33.3236 75.1167 32.8804 74.6738 32.5459C74.2306 32.2117 73.641 32.0445 72.9047 32.0445C72.2365 32.0445 71.6706 32.2117 71.2073 32.5459C70.7436 32.8804 70.3924 33.3271 70.154 33.8865C69.9153 34.4461 69.796 35.053 69.796 35.708C69.796 36.3768 69.9086 36.9872 70.1335 37.5398C70.3585 38.0924 70.7062 38.5257 71.1766 38.8395C71.6469 39.1535 72.2366 39.3102 72.9457 39.3102Z" fill="#202124"/>
<path d="M84.8483 41.1932C83.7302 41.1932 82.7827 40.9648 82.0055 40.5076C81.2283 40.0506 80.6385 39.4059 80.2364 38.5734C79.8341 37.7414 79.6331 36.7794 79.6331 35.6876C79.6331 34.5824 79.8376 33.6173 80.2467 32.7915C80.6556 31.9661 81.2488 31.3179 82.026 30.8472C82.8031 30.3765 83.7506 30.1411 84.8688 30.1411C85.9869 30.1411 86.9344 30.3765 87.7115 30.8472C88.4887 31.3179 89.0748 31.9697 89.4704 32.8018C89.8657 33.6342 90.0635 34.6029 90.0635 35.7081C90.0635 36.7861 89.8622 37.7414 89.4602 38.5734C89.0578 39.4059 88.4714 40.0506 87.7013 40.5076C86.9309 40.9649 85.9798 41.1932 84.8483 41.1932ZM84.8483 39.3102C85.5846 39.3102 86.1808 39.1465 86.6378 38.819C87.0945 38.4915 87.4319 38.0515 87.6502 37.4989C87.8681 36.9463 87.9774 36.3425 87.9774 35.6876C87.9774 35.0326 87.8681 34.4324 87.6502 33.8865C87.4319 33.3409 87.0945 32.9008 86.6378 32.5664C86.1808 32.2322 85.5846 32.0649 84.8483 32.0649C84.1254 32.0649 83.5324 32.2322 83.069 32.5664C82.6053 32.9008 82.2679 33.3409 82.0566 33.8865C81.8451 34.4324 81.7396 35.0326 81.7396 35.6876C81.7396 36.3562 81.8451 36.9636 82.0566 37.5091C82.2679 38.055 82.6053 38.4915 83.069 38.819C83.5324 39.1465 84.1254 39.3102 84.8483 39.3102Z" fill="#202124"/>
<path d="M96.5672 41.0703C95.7217 41.0703 95.0333 40.9511 94.5016 40.7122C93.9698 40.4736 93.5777 40.095 93.3256 39.5762C93.0731 39.0578 92.9472 38.3824 92.9472 37.55V32.1672H91.2498V30.2843H92.9472V27.1733H95.0538V30.2843H97.7739V32.1672H95.0538V37.2839C95.0538 37.9255 95.1695 38.4064 95.4015 38.7268C95.6331 39.0476 96.1173 39.2078 96.8535 39.2078H97.6921V41.0703L96.5672 41.0703Z" fill="#202124"/>
<path d="M99.5733 41.0703V26.6003H101.68V31.7989C101.966 31.4304 102.297 31.1235 102.672 30.8779C103.047 30.6323 103.452 30.4481 103.889 30.3253C104.325 30.2025 104.761 30.1411 105.198 30.1411C106.234 30.1411 107.045 30.363 107.631 30.8063C108.217 31.2498 108.633 31.8468 108.879 32.5971C109.124 33.3477 109.247 34.1935 109.247 35.135V41.0704H107.12V35.6262C107.12 35.1897 107.089 34.7599 107.028 34.3368C106.967 33.914 106.854 33.5283 106.69 33.1804C106.527 32.8325 106.278 32.553 105.944 32.3413C105.61 32.1299 105.163 32.024 104.604 32.024C104.073 32.024 103.619 32.1401 103.244 32.372C102.869 32.6042 102.569 32.9143 102.344 33.3032C102.119 33.692 101.952 34.1152 101.843 34.5722C101.734 35.0294 101.68 35.4829 101.68 35.9332V41.0704H99.5732L99.5733 41.0703Z" fill="#202124"/>
<path d="M116.507 41.1932C115.375 41.1932 114.428 40.9613 113.664 40.4973C112.901 40.0336 112.325 39.3889 111.936 38.5632C111.548 37.7378 111.353 36.7861 111.353 35.7081C111.353 34.6167 111.554 33.6547 111.957 32.8222C112.359 31.9901 112.945 31.3352 113.715 30.8574C114.486 30.38 115.416 30.1411 116.507 30.1411C117.339 30.1411 118.061 30.2946 118.675 30.6016C119.289 30.9086 119.796 31.3214 120.199 31.8398C120.601 32.3586 120.897 32.9348 121.088 33.5693C121.279 34.2038 121.361 34.8622 121.334 35.5443C121.334 35.6946 121.327 35.8378 121.313 35.9741C121.3 36.1107 121.286 36.2539 121.272 36.4039H113.48C113.521 36.9498 113.661 37.4477 113.9 37.898C114.138 38.3482 114.475 38.7064 114.912 38.9725C115.348 39.2386 115.887 39.3716 116.528 39.3716C116.882 39.3716 117.226 39.3274 117.56 39.2386C117.894 39.15 118.194 39.0067 118.46 38.8088C118.726 38.6111 118.913 38.3553 119.023 38.0413H121.15C120.972 38.7647 120.655 39.3614 120.199 39.8321C119.742 40.3028 119.189 40.6476 118.542 40.8657C117.894 41.0838 117.216 41.1932 116.507 41.1932ZM113.521 34.7256H119.248C119.234 34.1935 119.111 33.7195 118.88 33.3032C118.647 32.8872 118.327 32.5597 117.918 32.3208C117.509 32.0822 117.018 31.9626 116.446 31.9626C115.818 31.9626 115.297 32.0925 114.881 32.3515C114.465 32.6108 114.145 32.9485 113.92 33.3646C113.695 33.7809 113.562 34.2344 113.521 34.7256Z" fill="#202124"/>
<path d="M123.501 41.0703V26.6003H125.608V34.7665H127.346L130.373 30.2843H132.746L129.208 35.4215L133.052 41.0704H130.578L127.51 36.6291H125.608V41.0704H123.501V41.0703Z" fill="#202124"/>
<path d="M139.036 41.1932C137.905 41.1932 136.957 40.9613 136.194 40.4973C135.43 40.0336 134.854 39.3889 134.466 38.5632C134.077 37.7378 133.883 36.7861 133.883 35.7081C133.883 34.6167 134.084 33.6547 134.486 32.8222C134.888 31.9901 135.474 31.3352 136.245 30.8574C137.015 30.38 137.946 30.1411 139.036 30.1411C139.868 30.1411 140.591 30.2946 141.204 30.6016C141.818 30.9086 142.326 31.3214 142.728 31.8398C143.13 32.3586 143.427 32.9348 143.618 33.5693C143.808 34.2038 143.89 34.8622 143.863 35.5443C143.863 35.6946 143.856 35.8378 143.843 35.9741C143.829 36.1107 143.815 36.2539 143.802 36.4039H136.01C136.051 36.9498 136.19 37.4477 136.429 37.898C136.667 38.3482 137.005 38.7064 137.441 38.9725C137.877 39.2386 138.416 39.3716 139.057 39.3716C139.411 39.3716 139.755 39.3274 140.09 39.2386C140.424 39.15 140.724 39.0067 140.99 38.8088C141.255 38.6111 141.443 38.3553 141.552 38.0413H143.679C143.502 38.7647 143.185 39.3614 142.728 39.8321C142.271 40.3028 141.719 40.6476 141.071 40.8657C140.424 41.0838 139.745 41.1932 139.036 41.1932ZM136.051 34.7256H141.777C141.763 34.1935 141.641 33.7195 141.409 33.3032C141.177 32.8872 140.857 32.5597 140.448 32.3208C140.039 32.0822 139.548 31.9626 138.975 31.9626C138.348 31.9626 137.826 32.0925 137.411 32.3515C136.995 32.6108 136.674 32.9485 136.449 33.3646C136.224 33.7809 136.091 34.2344 136.051 34.7256Z" fill="#202124"/>
<path d="M146.031 41.0704V30.2843H148.015L148.117 31.8398C148.389 31.417 148.703 31.0825 149.058 30.8369C149.412 30.5913 149.801 30.4141 150.223 30.3048C150.646 30.1957 151.089 30.141 151.553 30.141H152.207V32.1673H151.553C150.776 32.1673 150.131 32.3243 149.62 32.638C149.109 32.952 148.734 33.3885 148.495 33.9479C148.257 34.5075 148.137 35.1487 148.137 35.8718V41.0704H146.031Z" fill="#202124"/>
<path d="M153.802 41.0703V26.6003H155.909V34.7665H157.647L160.674 30.2843H163.046L159.508 35.4215L163.353 41.0704H160.879L157.811 36.6291H155.909V41.0704H153.802V41.0703Z" fill="#202124"/>
<path d="M168.139 41.1932C167.648 41.1932 167.174 41.1282 166.717 40.9988C166.26 40.8692 165.855 40.6712 165.5 40.4052C165.146 40.1391 164.863 39.805 164.652 39.4023C164.44 39 164.335 38.5258 164.335 37.9799C164.335 37.325 164.461 36.7826 164.713 36.3528C164.965 35.923 165.303 35.5887 165.725 35.3499C166.148 35.1113 166.636 34.9406 167.188 34.8382C167.74 34.7359 168.316 34.6847 168.916 34.6847H171.554C171.554 34.1526 171.472 33.6854 171.309 33.2828C171.145 32.8804 170.889 32.5664 170.542 32.3413C170.194 32.1161 169.734 32.0036 169.161 32.0036C168.82 32.0036 168.497 32.0413 168.19 32.1161C167.883 32.1913 167.62 32.3106 167.402 32.4743C167.184 32.638 167.034 32.8565 166.953 33.1292H164.744C164.826 32.6109 165.01 32.1641 165.296 31.7887C165.582 31.4135 165.937 31.103 166.359 30.8574C166.782 30.6118 167.235 30.4311 167.72 30.3151C168.203 30.1993 168.698 30.1411 169.202 30.1411C170.757 30.1411 171.878 30.5949 172.567 31.5022C173.255 32.4097 173.599 33.6547 173.599 35.2373V41.0704H171.779L171.697 39.6991C171.384 40.1222 171.012 40.4429 170.583 40.661C170.153 40.8794 169.727 41.0227 169.304 41.0908C168.882 41.1589 168.493 41.1932 168.139 41.1932ZM168.466 39.4125C169.08 39.4125 169.618 39.307 170.082 39.0952C170.545 38.8839 170.906 38.5768 171.166 38.1743C171.424 37.772 171.554 37.2977 171.554 36.7518V36.3016H169.632C169.236 36.3016 168.851 36.3118 168.476 36.3323C168.101 36.3528 167.76 36.4075 167.454 36.496C167.147 36.5849 166.901 36.7314 166.717 36.936C166.533 37.1407 166.441 37.4343 166.441 37.8161C166.441 38.1846 166.536 38.4848 166.728 38.7167C166.918 38.9489 167.171 39.1228 167.484 39.2386C167.798 39.3546 168.125 39.4125 168.466 39.4125H168.466Z" fill="#202124"/>
<path d="M176.135 41.0704V30.2843H178.119L178.242 31.5533C178.487 31.1986 178.763 30.9223 179.07 30.7243C179.377 30.5267 179.707 30.3799 180.062 30.2843C180.416 30.189 180.778 30.141 181.146 30.141C181.868 30.141 182.465 30.2914 182.935 30.5913C183.406 30.8916 183.77 31.3009 184.029 31.8193C184.288 31.4509 184.582 31.1407 184.909 30.8881C185.236 30.6358 185.597 30.448 185.993 30.3252C186.388 30.2024 186.811 30.141 187.261 30.141C188.065 30.141 188.716 30.315 189.214 30.6629C189.712 31.0109 190.073 31.4784 190.298 32.065C190.523 32.6518 190.635 33.3272 190.635 34.0912V41.0704H188.508V34.9303C188.508 34.6029 188.495 34.2754 188.467 33.9479C188.44 33.6205 188.362 33.3102 188.232 33.0167C188.103 32.7234 187.918 32.4845 187.68 32.3004C187.441 32.1162 187.104 32.0241 186.668 32.0241C186.245 32.0241 185.894 32.1197 185.614 32.3106C185.335 32.5018 185.11 32.7577 184.94 33.0781C184.769 33.3989 184.646 33.7433 184.571 34.1117C184.496 34.4801 184.459 34.8485 184.459 35.2169V41.0704H182.332V34.9099C182.332 34.5962 182.318 34.2754 182.291 33.948C182.264 33.6205 182.195 33.3103 182.086 33.0168C181.977 32.7235 181.797 32.4846 181.545 32.3004C181.292 32.1162 180.955 32.0241 180.532 32.0241C179.919 32.0241 179.445 32.1981 179.111 32.546C178.777 32.894 178.548 33.3171 178.426 33.815C178.303 34.3132 178.242 34.7871 178.242 35.2374V41.0704H176.135L176.135 41.0704Z" fill="#202124"/>
<path d="M193.11 41.0704V30.2843H195.094L195.216 31.5533C195.462 31.1986 195.738 30.9223 196.045 30.7243C196.352 30.5267 196.682 30.3799 197.037 30.2843C197.391 30.189 197.752 30.141 198.121 30.141C198.843 30.141 199.44 30.2914 199.91 30.5913C200.38 30.8916 200.745 31.3009 201.004 31.8193C201.263 31.4509 201.556 31.1407 201.884 30.8881C202.211 30.6358 202.572 30.448 202.968 30.3252C203.363 30.2024 203.786 30.141 204.236 30.141C205.04 30.141 205.691 30.315 206.189 30.6629C206.686 31.0109 207.048 31.4784 207.273 32.065C207.498 32.6518 207.61 33.3272 207.61 34.0912V41.0704H205.483V34.9303C205.483 34.6029 205.469 34.2754 205.442 33.9479C205.415 33.6205 205.337 33.3102 205.207 33.0167C205.077 32.7234 204.893 32.4845 204.655 32.3004C204.416 32.1162 204.079 32.0241 203.643 32.0241C203.22 32.0241 202.869 32.1197 202.589 32.3106C202.31 32.5018 202.085 32.7577 201.914 33.0781C201.744 33.3989 201.621 33.7433 201.546 34.1117C201.471 34.4801 201.434 34.8485 201.434 35.2169V41.0704H199.307V34.9099C199.307 34.5962 199.293 34.2754 199.266 33.948C199.238 33.6205 199.17 33.3103 199.061 33.0168C198.952 32.7235 198.771 32.4846 198.519 32.3004C198.267 32.1162 197.929 32.0241 197.507 32.0241C196.893 32.0241 196.42 32.1981 196.086 32.546C195.751 32.894 195.523 33.3171 195.401 33.815C195.278 34.3132 195.216 34.7871 195.216 35.2374V41.0704H193.11L193.11 41.0704Z" fill="#202124"/>
<path d="M214.829 41.1932C213.697 41.1932 212.75 40.9613 211.986 40.4973C211.223 40.0336 210.647 39.3889 210.258 38.5632C209.87 37.7378 209.675 36.7861 209.675 35.7081C209.675 34.6167 209.876 33.6547 210.279 32.8222C210.681 31.9901 211.267 31.3352 212.038 30.8574C212.808 30.38 213.738 30.1411 214.829 30.1411C215.661 30.1411 216.384 30.2946 216.997 30.6016C217.611 30.9086 218.118 31.3214 218.521 31.8398C218.923 32.3586 219.219 32.9348 219.41 33.5693C219.601 34.2038 219.683 34.8622 219.656 35.5443C219.656 35.6946 219.649 35.8378 219.635 35.9741C219.622 36.1107 219.608 36.2539 219.594 36.4039H211.802C211.843 36.9498 211.983 37.4477 212.222 37.898C212.46 38.3482 212.797 38.7064 213.234 38.9725C213.67 39.2386 214.209 39.3716 214.85 39.3716C215.204 39.3716 215.548 39.3274 215.882 39.2386C216.216 39.15 216.516 39.0067 216.782 38.8088C217.048 38.6111 217.235 38.3553 217.345 38.0413H219.472C219.294 38.7647 218.977 39.3614 218.521 39.8321C218.064 40.3028 217.512 40.6476 216.864 40.8657C216.216 41.0838 215.538 41.1932 214.829 41.1932ZM211.843 34.7256H217.57C217.556 34.1935 217.433 33.7195 217.202 33.3032C216.97 32.8872 216.649 32.5597 216.24 32.3208C215.831 32.0822 215.341 31.9626 214.768 31.9626C214.141 31.9626 213.619 32.0925 213.203 32.3515C212.787 32.6108 212.467 32.9485 212.242 33.3646C212.017 33.7809 211.884 34.2344 211.843 34.7256Z" fill="#202124"/>
<path d="M221.824 41.0704V30.2843H223.807L223.91 31.8398C224.182 31.417 224.496 31.0825 224.85 30.8369C225.205 30.5913 225.593 30.4141 226.016 30.3048C226.439 30.1957 226.882 30.141 227.345 30.141H228V32.1673H227.345C226.568 32.1673 225.924 32.3243 225.413 32.638C224.902 32.952 224.526 33.3885 224.288 33.9479C224.049 34.5075 223.93 35.1487 223.93 35.8718V41.0704H221.824Z" fill="#202124"/>
<path fill-rule="evenodd" clip-rule="evenodd" d="M26.3173 16.7307H37.8734C37.8734 18.3728 36.6786 20.0439 35.1529 20.5907V27.642H41.7115C41.7115 27.642 41.7136 30.3612 40.1839 31.9256C38.6766 33.4669 35.9623 33.3841 35.153 33.3866V43.4155H29.0385V33.3842L17.535 33.3641L15.5512 38.382C14.2713 41.8329 11.0306 43.5213 7.99123 43.5364C3.13808 43.5606 0.0234761 40.2245 0.00010266 35.833C-0.0230273 31.4817 3.86543 27.6344 8.52502 27.6344H13.0063L20.6787 7.61571C21.782 4.68154 22.634 1.7077 25.8275 0.531444C31.0292 -1.48221 36.2793 2.49914 36.2793 7.8829C36.2793 7.8829 36.2795 8.03285 36.2795 8.10921C36.2795 10.3918 34.7624 12.3227 32.9097 12.7137C33.1417 13.0819 33.6164 13.3112 34.0952 13.3991C34.4198 13.4588 34.7801 13.6777 34.724 14.0742C34.6695 14.4599 34.2056 14.6607 33.6899 14.5813C33.1511 14.4983 32.5618 14.201 32.1683 13.6628C31.7605 14.198 31.1158 14.4762 30.6124 14.5719C30.0945 14.6703 29.6725 14.4691 29.6264 14.083C29.5801 13.695 29.9315 13.4581 30.2418 13.3991C30.6599 13.3197 31.1766 13.0778 31.4078 12.7153C29.4703 12.3248 27.9996 10.4111 27.9996 8.10921C27.9996 7.17124 28.2438 6.29774 28.6642 5.56547C27.4759 6.15209 27.0904 7.81765 26.6178 8.96088L19.4541 27.6334L29.0386 27.6422L29.0405 20.5899C27.5193 20.0353 26.3174 18.3657 26.3174 16.7307H26.3173ZM11.4212 33.3239C11.4212 33.3239 9.05545 33.3241 8.08278 33.3321C6.52343 33.345 5.525 34.4628 5.31308 35.5898C5.12448 36.5925 5.60291 37.9026 7.1642 38.1011C9.10687 38.3481 9.9044 37.0175 10.4064 35.9151C10.7587 35.1416 11.4212 33.3239 11.4212 33.3239Z" fill="#E41902"/>
</svg>