<?xml version="1.0" encoding="UTF-8"?>
<svg xmlns="http://www.w3.org/2000/svg" width="126" height="22" viewBox="0 0 126 22" fill="none">
  <g clip-path="url(#clip0_642_1874)">
    <path d="M116.792 11.8403C116.792 9.70986 117.789 8.11456 119.919 8.11456C121.871 8.11456 123.025 9.35563 123.025 11.8403C123.025 14.3249 121.871 15.566 119.919 15.566C117.789 15.566 116.792 13.9682 116.792 11.8403ZM119.919 21.9999C123.158 21.9999 125.22 20.4699 125.22 17.0532V6.6273H123.047V7.9588H123.002C122.381 7.1599 121.339 6.29568 119.52 6.29568C116.704 6.29568 114.528 8.2025 114.528 11.8403C114.528 15.478 116.701 17.3623 119.52 17.3623C121.339 17.3623 122.381 16.5633 123.002 15.6539H123.047V17.1839C123.047 19.3143 121.982 20.2237 119.919 20.2237C118.078 20.2237 117.324 19.4248 117.103 18.4048H114.84C115.061 20.4448 116.681 21.9974 119.919 21.9974M105.346 14.8575C105.346 13.6818 106.19 13.1266 108.185 12.7271C109.338 12.4834 110.315 12.2397 110.669 11.9056V13.526C110.669 15.5007 109.227 16.498 107.275 16.498C105.921 16.498 105.346 15.9202 105.346 14.8575ZM106.788 18.2516C108.629 18.2516 109.915 17.5205 110.647 16.3448H110.692C110.825 17.6311 111.403 18.0531 112.488 18.0531C112.842 18.0531 113.219 18.0079 113.596 17.92V16.5885C113.463 16.6111 113.397 16.6111 113.33 16.6111C112.908 16.6111 112.797 16.189 112.797 15.37V10.1797C112.797 7.25285 110.933 6.27558 108.604 6.27558C105.145 6.27558 103.725 7.98393 103.612 10.157H105.831C105.941 8.64968 106.541 8.02664 108.514 8.02664C110.177 8.02664 110.667 8.715 110.667 9.534C110.667 10.6419 109.579 10.8655 107.805 11.1971C104.989 11.7297 103.08 12.4834 103.08 15.0133C103.08 16.9427 104.522 18.2516 106.783 18.2516M99.379 17.9401H101.552V2.08008H99.379V17.9401ZM93.8319 12.084C93.8319 9.93345 95.2513 8.44619 97.226 8.44619C97.4923 8.44619 97.6907 8.4688 97.957 8.51151V6.42632C97.6229 6.38109 97.3139 6.361 96.9144 6.361C95.3845 6.361 94.475 7.35837 93.8746 8.77781H93.8294V6.6273H91.6562V17.9401H93.8294V12.084H93.8319ZM81.3233 11.1519C81.4564 9.2878 82.7879 8.04673 84.6068 8.04673C86.5362 8.04673 87.7798 9.37824 87.7798 11.1519H81.3258H81.3233ZM84.6721 18.2717C87.6441 18.2717 89.3073 16.6312 89.9077 14.4555H87.6894C87.4884 15.2092 86.7121 16.4955 84.7173 16.4955C82.4764 16.4955 81.3685 14.7445 81.3233 12.8577H90.0182C90.0409 12.6794 90.0409 12.3477 90.0409 12.0362C90.0409 8.5316 88.1114 6.26804 84.6721 6.26804C81.2328 6.26804 79.0823 8.70746 79.0823 12.2573C79.0823 15.8072 81.0796 18.2692 84.6721 18.2692M72.0052 17.9401H74.6456L80.1023 2.08008H77.5297L73.3367 15.3675H73.3141L69.0985 2.08008H66.4154L72.0052 17.9401ZM58.2304 12.2849C58.2304 9.91084 59.2956 8.09195 61.6471 8.09195C63.9986 8.09195 65.0186 9.91084 65.0186 12.2849C65.0186 14.659 63.9534 16.4779 61.6471 16.4779C59.3408 16.4779 58.2304 14.6364 58.2304 12.2849ZM61.6245 18.2717C65.1517 18.2717 67.2822 15.8097 67.2822 12.2598C67.2822 8.70997 65.1517 6.27055 61.6471 6.27055C58.1425 6.27055 55.9694 8.7552 55.9694 12.2824C55.9694 15.8097 58.0998 18.2717 61.627 18.2717M46.4705 12.2849C46.4705 9.71237 47.6688 8.11456 49.6209 8.11456C51.7513 8.11456 52.7712 10.0666 52.7712 12.2849C52.7712 14.5033 51.7513 16.4553 49.6209 16.4553C47.6688 16.4553 46.4705 14.8374 46.4705 12.2849ZM49.9751 18.2516C52.8592 18.2516 55.0549 16.0106 55.0549 12.2849C55.0549 8.55924 52.8592 6.29568 49.9751 6.29568C48.2014 6.29568 47.1136 7.1599 46.4931 7.9588H46.4478V6.6273H44.2747V21.8668H46.4478V16.5433H46.4931C47.1136 17.4527 48.2014 18.2516 49.9751 18.2516ZM33.4016 12.0613L35.9742 4.34113H36.0194L38.6146 12.0613H33.4016ZM28.7891 17.9401H31.3616L32.6705 14.1239H39.3029L40.6118 17.9401H43.2748L37.3308 2.08008H34.6904L28.7891 17.9401Z" fill="#E3051B"/>
    <path d="M17.0289 15.5585C16.5265 14.6741 15.7904 13.9054 14.8457 13.3602C13.9162 12.8251 12.9038 12.5688 11.9014 12.5688L17.2801 21.8844C18.1645 21.4347 18.986 20.8795 19.7271 20.2313L17.0289 15.5585ZM6.77631 15.5585L4.07812 20.2313C4.81925 20.8769 5.64076 21.4347 6.52508 21.8844L11.9014 12.5688C10.9015 12.5688 9.88651 12.8226 8.95697 13.3602C8.01235 13.9054 7.27625 14.6741 6.7738 15.5585" fill="#E3051B"/>
    <path d="M23.783 10.6093H13.0305C13.5304 11.4761 14.259 12.2272 15.186 12.7649C16.1306 13.31 17.1657 13.5638 18.1806 13.5562H23.577C23.7227 12.8151 23.7981 12.0489 23.7981 11.2625C23.7981 11.044 23.7931 10.8254 23.7805 10.6093M15.7563 0L13.0581 4.67535C12.5406 5.55213 12.2441 6.57211 12.2441 7.66495C12.2441 8.75779 12.5331 9.74261 13.033 10.6093L18.4093 1.29633C17.5903 0.76122 16.7009 0.324084 15.7563 0Z" fill="#F9C5B2"/>
    <path d="M10.745 4.67535L8.04431 0C7.1022 0.321571 6.21034 0.76122 5.39134 1.29633L10.7701 10.6093C11.2701 9.74261 11.5565 8.7377 11.5565 7.66495C11.5565 6.57463 11.26 5.55213 10.7425 4.67535M0 11.2625C0 12.0464 0.0753683 12.8126 0.22108 13.5562H5.61745C6.63492 13.5663 7.66747 13.3126 8.61459 12.7649C9.54414 12.2298 10.2702 11.4786 10.7701 10.6093H0.0175859C0.00502455 10.8254 0 11.044 0 11.2625Z" fill="#F9C5B2"/>
  </g>
  <defs>
    <clipPath id="clip0_642_1874">
      <rect width="125.219" height="22" fill="white"/>
    </clipPath>
  </defs>
</svg>