<svg xmlns="http://www.w3.org/2000/svg" width="82" height="32" viewBox="0 0 82 32" fill="none"><g clip-path="url(#clip0_3850_3965)"><path d="M20.6478 6.25401C20.8416 5.68094 20.9353 5.0954 20.9353 4.50364C20.9353 3.94302 20.8228 3.38863 20.604 2.8467C20.379 2.29854 20.0477 1.81267 19.6038 1.38909C19.16 0.959281 18.5974 0.62291 17.916 0.373746C17.2346 0.124582 16.4532 0 15.5593 0C14.284 0 13.1088 0.211789 12.0273 0.641597C10.9459 1.0714 10.0082 1.67563 9.20804 2.45426C8.40789 3.23913 7.77651 4.15481 7.32017 5.21998C6.86384 6.27893 6.63254 7.45 6.63254 8.71451C6.63254 10.1036 6.9576 11.4055 7.60773 12.6326C8.25786 13.8597 8.9705 15.037 9.7394 16.1707C10.5083 17.3044 11.2209 18.4007 11.8711 19.4472C12.5212 20.4937 12.8463 21.5215 12.8463 22.5244C12.8463 23.4089 12.5587 24.1627 11.9773 24.7793C11.4022 25.396 10.5333 25.7075 9.37682 25.7075C8.84547 25.7075 8.28286 25.6203 7.689 25.4396C7.09513 25.2652 6.49501 24.9475 5.88865 24.4866C5.28228 24.0319 4.70717 23.4027 4.15706 22.6054C3.60695 21.8081 3.12561 20.774 2.71303 19.5095C2.62551 19.2728 2.43797 19.2292 2.15667 19.3787C1.87537 19.5282 1.56906 19.7898 1.24399 20.176C0.918929 20.5622 0.631373 21.0419 0.375073 21.615C0.125024 22.188 0 22.786 0 23.4089C0 24.3558 0.200039 25.1842 0.600117 25.9068C1.00019 26.6294 1.5378 27.2523 2.21918 27.7631C2.90056 28.2801 3.68197 28.6725 4.56964 28.9342C5.45731 29.202 6.4075 29.3328 7.41394 29.3328C8.7142 29.3328 9.95819 29.1459 11.1459 28.7784C12.3274 28.4109 13.3714 27.869 14.2778 27.1651C15.178 26.455 15.8968 25.5767 16.4344 24.5302C16.9658 23.4837 17.2346 22.2815 17.2346 20.9235C17.2346 19.6528 16.9158 18.4194 16.2782 17.2048C15.6405 15.9963 14.9467 14.8128 14.1903 13.6666C13.4339 12.5143 12.74 11.4117 12.1024 10.3465C11.4647 9.28758 11.1459 8.25355 11.1459 7.25067C11.1459 6.63399 11.2584 6.0796 11.4772 5.59373C11.7023 5.10786 11.9898 4.7092 12.3462 4.39774C12.7025 4.08629 13.0838 3.84958 13.5026 3.68762C13.9152 3.52567 14.3153 3.44469 14.7029 3.44469C15.1467 3.44469 15.5155 3.55681 15.8156 3.77483C16.1094 3.99908 16.2594 4.32922 16.2594 4.77149C16.2594 5.21375 16.2094 5.62487 16.1031 6.01108C15.9969 6.39728 15.8968 6.73988 15.7906 7.05134C15.6843 7.36279 15.5843 7.63687 15.478 7.86735C15.3717 8.10405 15.3217 8.29716 15.3217 8.44042C15.3217 9.00104 15.7968 9.28135 16.7408 9.28135C17.3909 9.28135 17.9785 9.14431 18.4974 8.864C19.0162 8.58369 19.4538 8.22241 19.8101 7.78014C20.1664 7.33787 20.4415 6.82709 20.629 6.25401H20.6478Z" fill="url(#paint0_linear_3850_3965)"/><path d="M80.8595 14.3674C80.6657 13.7009 80.3719 13.1216 79.9718 12.617C79.5717 12.1187 79.0529 11.7263 78.4153 11.446C77.7776 11.1656 77.015 11.0286 76.1273 11.0286C74.8271 11.0286 73.6018 11.4273 72.4641 12.2246C71.3264 13.0219 70.3324 14.031 69.4885 15.2582C68.6446 16.4853 67.9882 17.8183 67.5131 19.2635C67.4256 19.5376 67.3506 19.8054 67.2756 20.0733C66.988 20.5467 66.6817 21.0138 66.3567 21.4748C65.7378 22.3593 65.0939 23.1193 64.425 23.7547C63.7561 24.39 63.131 24.7077 62.5372 24.7077C62.2684 24.7077 62.1371 24.4835 62.1371 24.0412C62.1371 23.5117 62.3121 22.6646 62.6684 21.4997C63.0248 20.3349 63.5311 18.8274 64.2 16.9836C64.8689 15.1398 65.6753 12.9347 66.6192 10.3683C67.5694 7.80193 68.6446 4.83688 69.8636 1.47317C70.0136 1.14926 69.9511 0.900094 69.6886 0.71945C69.4198 0.545036 69.0634 0.451599 68.6196 0.451599C67.9695 0.451599 67.2568 0.613556 66.4879 0.937469C65.719 1.26138 65.2314 1.74725 65.0251 2.39508L61.6495 12.7914C61.4432 12.2931 61.1431 11.8695 60.7618 11.5332C60.3742 11.1968 59.8429 11.0224 59.1615 11.0224C57.68 11.0224 56.3047 11.4709 55.0295 12.3741C53.7542 13.2773 52.6477 14.3923 51.6976 15.7378C50.8286 16.9712 50.141 18.298 49.6222 19.712C49.2721 20.3037 48.9033 20.8893 48.4969 21.4686C47.8781 22.3531 47.2342 23.1131 46.5653 23.7484C45.8964 24.3838 45.2713 24.7015 44.6774 24.7015C44.3524 24.7015 44.1898 24.4772 44.1898 24.035C44.1898 23.5615 44.3211 22.9013 44.5899 22.0416C44.8587 21.1883 45.1713 20.229 45.5464 19.1638C45.9152 18.1049 46.3028 16.9836 46.7028 15.8001C47.1029 14.6228 47.453 13.4829 47.7468 12.3928C47.8343 12.0377 47.7593 11.7823 47.5217 11.6204C47.2842 11.4584 46.9591 11.3774 46.5466 11.3774C46.2527 11.3774 45.9339 11.421 45.5901 11.5082C45.2463 11.5955 44.9212 11.72 44.6149 11.882C44.3024 12.0439 44.0211 12.2495 43.771 12.4987C43.521 12.7478 43.3334 13.0219 43.2147 13.3147L42.327 15.8811C42.0582 16.6784 41.6456 17.5754 41.083 18.5783C40.5204 19.5812 39.914 20.5155 39.2639 21.3876C38.6138 22.2597 37.9699 22.9885 37.3323 23.5802C36.6946 24.172 36.157 24.4648 35.7132 24.4648C35.5069 24.4648 35.4006 24.2904 35.4006 23.9353C35.4006 23.2003 35.7382 21.8174 36.4196 19.7992C37.101 17.7809 37.8824 15.2955 38.7763 12.3429C38.8951 12.019 38.8326 11.7761 38.6013 11.6141C38.3637 11.4522 38.0386 11.3712 37.6261 11.3712C37.3323 11.3712 37.0072 11.4148 36.6509 11.502C36.2946 11.5892 35.9632 11.7076 35.6507 11.8571C35.3381 12.0066 35.0568 12.2059 34.8068 12.4551C34.5567 12.7042 34.3879 12.9783 34.2942 13.2711C33.8128 14.7162 33.3815 16.0306 32.9939 17.2328C32.7439 17.6626 32.4501 18.1672 32.0937 18.7527C31.5436 19.6684 30.931 20.5654 30.2496 21.4499C29.5682 22.3344 28.8556 23.0944 28.118 23.7297C27.3803 24.3651 26.6677 24.6828 25.9863 24.6828C25.5737 24.6828 25.3674 24.39 25.3674 23.7983C25.3674 23.1193 25.5987 22.0292 26.0551 20.5217C26.5114 19.0143 27.174 17.0708 28.0304 14.6789L29.0056 14.548C29.362 14.492 29.7245 14.3549 30.0934 14.1494C30.4622 13.9438 30.7872 13.7009 31.0685 13.4206C31.3498 13.1403 31.5811 12.8537 31.7562 12.561C31.9312 12.2682 32.025 12.0128 32.025 11.8072C32.025 11.5145 31.8499 11.365 31.4936 11.365H29.2307L30.7872 7.11673C30.9373 6.79282 30.881 6.54988 30.631 6.38793C30.3809 6.22597 30.0433 6.14499 29.6308 6.14499C29.3057 6.14499 28.9556 6.1886 28.5868 6.2758C28.218 6.36301 27.8679 6.48136 27.5429 6.63086C27.2178 6.78036 26.924 6.97969 26.6552 7.22886C26.3864 7.47802 26.1988 7.7521 26.0801 8.04487L24.8361 11.365H24.611C24.3422 11.365 24.0734 11.4771 23.7921 11.6951C23.5108 11.9194 23.2608 12.1872 23.0357 12.5111C22.8107 12.835 22.6356 13.1776 22.5044 13.5265C22.3731 13.8815 22.3043 14.2054 22.3043 14.4982C22.3043 15.0277 22.5419 15.2831 23.017 15.2519H23.4608C22.6044 17.8183 21.9668 19.9487 21.5542 21.643C21.1416 23.3373 20.9353 24.7202 20.9353 25.7791C20.9353 26.9003 21.1604 27.6977 21.6042 28.1711C22.048 28.6445 22.6982 28.8812 23.5608 28.8812C24.8923 28.8812 26.1363 28.5635 27.2928 27.9281C28.4493 27.2928 29.4995 26.5079 30.4434 25.5611C30.5872 25.4178 30.7247 25.2683 30.8623 25.1251C30.7935 25.6234 30.7497 26.0656 30.7497 26.4456C30.7497 27.3924 30.9623 28.034 31.3936 28.3704C31.8249 28.713 32.4688 28.8812 33.3252 28.8812C33.8878 28.8812 34.4692 28.7317 35.0818 28.4389C35.6882 28.1462 36.2821 27.7537 36.8572 27.2679C37.4323 26.782 37.9886 26.2338 38.52 25.6296C39.0513 25.0254 39.5389 24.4274 39.9828 23.8356C39.8077 24.8074 39.714 25.6047 39.714 26.2276C39.714 27.2616 39.9265 27.9593 40.3578 28.3268C40.7892 28.6943 41.4143 28.8812 42.2457 28.8812C43.4897 28.8812 44.6462 28.5635 45.7089 27.9281C46.7778 27.2928 47.753 26.5079 48.6407 25.5611C48.6845 25.5175 48.722 25.4677 48.7595 25.424C48.8845 26.2712 49.1721 27.0062 49.6347 27.6167C50.2723 28.4576 51.2975 28.875 52.7228 28.875C53.7605 28.875 54.6856 28.6756 55.4983 28.277C56.311 27.8783 57.0173 27.3987 57.6112 26.8381C57.9363 28.196 58.7677 28.875 60.0992 28.875C61.3432 28.875 62.4997 28.5573 63.5624 27.9219C64.6313 27.2865 65.6065 26.5017 66.4942 25.5549C66.6567 25.3804 66.813 25.1998 66.9755 25.0192C67.0068 25.1873 67.0318 25.368 67.0755 25.5299C67.2506 26.1965 67.5319 26.7758 67.9195 27.2803C68.3008 27.7849 68.8071 28.1711 69.4323 28.4514C70.0511 28.7317 70.8075 28.8687 71.6952 28.8687C72.9954 28.8687 74.2269 28.4701 75.3834 27.6728C76.5399 26.8754 77.5463 25.8725 78.4028 24.6641C79.2592 23.4557 79.9343 22.1226 80.4219 20.6588C80.9095 19.2012 81.1533 17.8059 81.1533 16.4791C81.1533 15.7129 81.0595 14.9965 80.8657 14.3363L80.8595 14.3674ZM58.8364 19.8739C58.4926 20.7024 58.0863 21.5122 57.6175 22.3095C57.1424 23.1068 56.6173 23.792 56.0421 24.3651C55.467 24.9382 54.8669 25.2309 54.2418 25.2309C53.8855 25.2309 53.6354 25.0939 53.4854 24.8074C53.3354 24.5271 53.2604 24.1346 53.2604 23.6363C53.2604 22.9013 53.4104 22.023 53.7042 21.0014C53.998 19.986 54.3918 19.0081 54.8794 18.0799C55.367 17.1518 55.9234 16.3607 56.5422 15.7129C57.1611 15.0651 57.7987 14.7411 58.4489 14.7411C58.6864 14.7411 58.8364 14.8159 58.8927 14.9654C58.949 15.1149 58.9802 15.308 58.9802 15.5385C58.9802 15.7689 58.9677 16.0057 58.9365 16.2237C58.9052 16.4479 58.8927 16.6597 58.8927 16.8653C58.8927 17.1331 58.9365 17.3574 59.024 17.5505C59.1115 17.7436 59.3053 17.837 59.5991 17.837C59.4241 18.3665 59.1615 19.0455 58.8239 19.8739H58.8364ZM76.3273 19.4317C76.0773 20.4657 75.7522 21.4374 75.3522 22.3531C74.9521 23.2688 74.502 24.035 73.9956 24.6516C73.4893 25.2746 72.9892 25.5798 72.4828 25.5798C72.0078 25.5798 71.6639 25.3742 71.4389 24.9569C71.2201 24.5457 71.1076 24.0163 71.1076 23.3622C71.1076 22.5337 71.2326 21.5994 71.4827 20.5529C71.7327 19.5064 72.0578 18.516 72.4578 17.5878C72.8579 16.6597 73.308 15.8873 73.8144 15.2644C74.3145 14.6477 74.8208 14.3363 75.3209 14.3363C75.821 14.3363 76.1773 14.5418 76.3899 14.9529C76.5961 15.3641 76.7024 15.9122 76.7024 16.5912C76.7024 17.4446 76.5774 18.3914 76.3273 19.4254V19.4317Z" fill="url(#paint1_linear_3850_3965)"/></g><defs><linearGradient id="paint0_linear_3850_3965" x1="3.58104" y1="3.08766" x2="22.3872" y2="20.7937" gradientUnits="userSpaceOnUse"><stop stop-color="#FF5252"/><stop offset="1" stop-color="#F4476A"/></linearGradient><linearGradient id="paint1_linear_3850_3965" x1="31.2358" y1="3.44419" x2="42.8221" y2="35.818" gradientUnits="userSpaceOnUse"><stop stop-color="#FF5252"/><stop offset="1" stop-color="#F4476A"/></linearGradient><clipPath id="clip0_3850_3965"><rect width="81.1533" height="32" fill="white"/></clipPath></defs></svg>